<svg width="21" height="22" viewBox="0 0 21 22" fill="none" xmlns="http://www.w3.org/2000/svg">
<path d="M15.3795 1.30176H5.6812C3.00308 1.30176 0.832031 3.47281 0.832031 6.15093V15.8493C0.832031 18.5274 3.00308 20.6984 5.6812 20.6984H15.3795C18.0577 20.6984 20.2287 18.5274 20.2287 15.8493V6.15093C20.2287 3.47281 18.0577 1.30176 15.3795 1.30176Z" stroke="#7657AA" stroke-width="1.49205" stroke-linecap="round" stroke-linejoin="round"/>
<path d="M14.4101 10.3892C14.5298 11.1963 14.3919 12.0206 14.0161 12.7449C13.6403 13.4692 13.0457 14.0565 12.3168 14.4234C11.588 14.7902 10.762 14.9179 9.95639 14.7883C9.15079 14.6586 8.40657 14.2783 7.8296 13.7013C7.25262 13.1243 6.87227 12.3801 6.74263 11.5745C6.613 10.7689 6.74069 9.94294 7.10754 9.21409C7.47439 8.48524 8.06172 7.89062 8.78599 7.51481C9.51027 7.139 10.3346 7.00113 11.1417 7.12082C11.9651 7.24291 12.7273 7.62656 13.3158 8.21509C13.9043 8.80363 14.288 9.56585 14.4101 10.3892Z" stroke="#7657AA" stroke-width="1.49205" stroke-linecap="round" stroke-linejoin="round"/>
<path d="M15.8643 5.66602H15.8747" stroke="#7657AA" stroke-width="2.23808" stroke-linecap="round" stroke-linejoin="round"/>
</svg>
